<svg xmlns="http://www.w3.org/2000/svg" version="1.1" xmlns:xlink="http://www.w3.org/1999/xlink" xmlns:svgjs="http://svgjs.dev/svgjs" viewBox="0 0 2400 800"><defs><linearGradient x1="50%" y1="0%" x2="50%" y2="100%" id="sssurf-grad"><stop stop-color="hsl(335, 77%, 60%)" stop-opacity="1" offset="0%"></stop><stop stop-color="hsl(335, 77%, 80%)" stop-opacity="1" offset="100%"></stop></linearGradient></defs><g fill="url(#sssurf-grad)" transform="matrix(1,0,0,1,10.8282470703125,223.55714416503906)"><path d="M-10,10C33.75,13.541666666666668,114.58333333333334,34.708333333333336,200,27C285.41666666666663,19.291666666666664,316.66666666666663,-29.5,400,-27C483.33333333333337,-24.5,516.6666666666666,39,600,39C683.3333333333334,39,716.6666666666666,-24.083333333333332,800,-27C883.3333333333334,-29.916666666666668,916.6666666666666,23.958333333333332,1000,25C1083.3333333333333,26.041666666666668,1116.6666666666667,-24.708333333333332,1200,-22C1283.3333333333333,-19.291666666666668,1316.6666666666667,32.166666666666664,1400,38C1483.3333333333333,43.833333333333336,1516.6666666666667,4.958333333333333,1600,6C1683.3333333333333,7.041666666666667,1716.6666666666667,47.166666666666664,1800,43C1883.3333333333333,38.833333333333336,1916.6666666666667,-17.541666666666668,2000,-14C2083.3333333333335,-10.458333333333332,2118.75,55,2200,60C2281.25,65,2296.25,-60.83333333333333,2390,10C2483.75,80.83333333333333,3252.0833333333335,214.58333333333331,2650,400C2047.9166666666665,585.4166666666667,156.25,795.8333333333334,-500,900" transform="matrix(1,0,0,1,0,35)" opacity="0.05"></path><path d="M-10,10C33.75,13.541666666666668,114.58333333333334,34.708333333333336,200,27C285.41666666666663,19.291666666666664,316.66666666666663,-29.5,400,-27C483.33333333333337,-24.5,516.6666666666666,39,600,39C683.3333333333334,39,716.6666666666666,-24.083333333333332,800,-27C883.3333333333334,-29.916666666666668,916.6666666666666,23.958333333333332,1000,25C1083.3333333333333,26.041666666666668,1116.6666666666667,-24.708333333333332,1200,-22C1283.3333333333333,-19.291666666666668,1316.6666666666667,32.166666666666664,1400,38C1483.3333333333333,43.833333333333336,1516.6666666666667,4.958333333333333,1600,6C1683.3333333333333,7.041666666666667,1716.6666666666667,47.166666666666664,1800,43C1883.3333333333333,38.833333333333336,1916.6666666666667,-17.541666666666668,2000,-14C2083.3333333333335,-10.458333333333332,2118.75,55,2200,60C2281.25,65,2296.25,-60.83333333333333,2390,10C2483.75,80.83333333333333,3252.0833333333335,214.58333333333331,2650,400C2047.9166666666665,585.4166666666667,156.25,795.8333333333334,-500,900" transform="matrix(1,0,0,1,0,70)" opacity="0.21"></path><path d="M-10,10C33.75,13.541666666666668,114.58333333333334,34.708333333333336,200,27C285.41666666666663,19.291666666666664,316.66666666666663,-29.5,400,-27C483.33333333333337,-24.5,516.6666666666666,39,600,39C683.3333333333334,39,716.6666666666666,-24.083333333333332,800,-27C883.3333333333334,-29.916666666666668,916.6666666666666,23.958333333333332,1000,25C1083.3333333333333,26.041666666666668,1116.6666666666667,-24.708333333333332,1200,-22C1283.3333333333333,-19.291666666666668,1316.6666666666667,32.166666666666664,1400,38C1483.3333333333333,43.833333333333336,1516.6666666666667,4.958333333333333,1600,6C1683.3333333333333,7.041666666666667,1716.6666666666667,47.166666666666664,1800,43C1883.3333333333333,38.833333333333336,1916.6666666666667,-17.541666666666668,2000,-14C2083.3333333333335,-10.458333333333332,2118.75,55,2200,60C2281.25,65,2296.25,-60.83333333333333,2390,10C2483.75,80.83333333333333,3252.0833333333335,214.58333333333331,2650,400C2047.9166666666665,585.4166666666667,156.25,795.8333333333334,-500,900" transform="matrix(1,0,0,1,0,105)" opacity="0.37"></path><path d="M-10,10C33.75,13.541666666666668,114.58333333333334,34.708333333333336,200,27C285.41666666666663,19.291666666666664,316.66666666666663,-29.5,400,-27C483.33333333333337,-24.5,516.6666666666666,39,600,39C683.3333333333334,39,716.6666666666666,-24.083333333333332,800,-27C883.3333333333334,-29.916666666666668,916.6666666666666,23.958333333333332,1000,25C1083.3333333333333,26.041666666666668,1116.6666666666667,-24.708333333333332,1200,-22C1283.3333333333333,-19.291666666666668,1316.6666666666667,32.166666666666664,1400,38C1483.3333333333333,43.833333333333336,1516.6666666666667,4.958333333333333,1600,6C1683.3333333333333,7.041666666666667,1716.6666666666667,47.166666666666664,1800,43C1883.3333333333333,38.833333333333336,1916.6666666666667,-17.541666666666668,2000,-14C2083.3333333333335,-10.458333333333332,2118.75,55,2200,60C2281.25,65,2296.25,-60.83333333333333,2390,10C2483.75,80.83333333333333,3252.0833333333335,214.58333333333331,2650,400C2047.9166666666665,585.4166666666667,156.25,795.8333333333334,-500,900" transform="matrix(1,0,0,1,0,140)" opacity="0.53"></path><path d="M-10,10C33.75,13.541666666666668,114.58333333333334,34.708333333333336,200,27C285.41666666666663,19.291666666666664,316.66666666666663,-29.5,400,-27C483.33333333333337,-24.5,516.6666666666666,39,600,39C683.3333333333334,39,716.6666666666666,-24.083333333333332,800,-27C883.3333333333334,-29.916666666666668,916.6666666666666,23.958333333333332,1000,25C1083.3333333333333,26.041666666666668,1116.6666666666667,-24.708333333333332,1200,-22C1283.3333333333333,-19.291666666666668,1316.6666666666667,32.166666666666664,1400,38C1483.3333333333333,43.833333333333336,1516.6666666666667,4.958333333333333,1600,6C1683.3333333333333,7.041666666666667,1716.6666666666667,47.166666666666664,1800,43C1883.3333333333333,38.833333333333336,1916.6666666666667,-17.541666666666668,2000,-14C2083.3333333333335,-10.458333333333332,2118.75,55,2200,60C2281.25,65,2296.25,-60.83333333333333,2390,10C2483.75,80.83333333333333,3252.0833333333335,214.58333333333331,2650,400C2047.9166666666665,585.4166666666667,156.25,795.8333333333334,-500,900" transform="matrix(1,0,0,1,0,175)" opacity="0.68"></path><path d="M-10,10C33.75,13.541666666666668,114.58333333333334,34.708333333333336,200,27C285.41666666666663,19.291666666666664,316.66666666666663,-29.5,400,-27C483.33333333333337,-24.5,516.6666666666666,39,600,39C683.3333333333334,39,716.6666666666666,-24.083333333333332,800,-27C883.3333333333334,-29.916666666666668,916.6666666666666,23.958333333333332,1000,25C1083.3333333333333,26.041666666666668,1116.6666666666667,-24.708333333333332,1200,-22C1283.3333333333333,-19.291666666666668,1316.6666666666667,32.166666666666664,1400,38C1483.3333333333333,43.833333333333336,1516.6666666666667,4.958333333333333,1600,6C1683.3333333333333,7.041666666666667,1716.6666666666667,47.166666666666664,1800,43C1883.3333333333333,38.833333333333336,1916.6666666666667,-17.541666666666668,2000,-14C2083.3333333333335,-10.458333333333332,2118.75,55,2200,60C2281.25,65,2296.25,-60.83333333333333,2390,10C2483.75,80.83333333333333,3252.0833333333335,214.58333333333331,2650,400C2047.9166666666665,585.4166666666667,156.25,795.8333333333334,-500,900" transform="matrix(1,0,0,1,0,210)" opacity="0.84"></path><path d="M-10,10C33.75,13.541666666666668,114.58333333333334,34.708333333333336,200,27C285.41666666666663,19.291666666666664,316.66666666666663,-29.5,400,-27C483.33333333333337,-24.5,516.6666666666666,39,600,39C683.3333333333334,39,716.6666666666666,-24.083333333333332,800,-27C883.3333333333334,-29.916666666666668,916.6666666666666,23.958333333333332,1000,25C1083.3333333333333,26.041666666666668,1116.6666666666667,-24.708333333333332,1200,-22C1283.3333333333333,-19.291666666666668,1316.6666666666667,32.166666666666664,1400,38C1483.3333333333333,43.833333333333336,1516.6666666666667,4.958333333333333,1600,6C1683.3333333333333,7.041666666666667,1716.6666666666667,47.166666666666664,1800,43C1883.3333333333333,38.833333333333336,1916.6666666666667,-17.541666666666668,2000,-14C2083.3333333333335,-10.458333333333332,2118.75,55,2200,60C2281.25,65,2296.25,-60.83333333333333,2390,10C2483.75,80.83333333333333,3252.0833333333335,214.58333333333331,2650,400C2047.9166666666665,585.4166666666667,156.25,795.8333333333334,-500,900" transform="matrix(1,0,0,1,0,245)" opacity="1"></path></g></svg>